<svg width="189" height="194" viewBox="0 0 189 194" fill="none" xmlns="http://www.w3.org/2000/svg">
<mask id="mask0_5138_955" style="mask-type:alpha" maskUnits="userSpaceOnUse" x="0" y="0" width="189" height="194">
<rect width="189" height="194" fill="#D9D9D9"/>
</mask>
<g mask="url(#mask0_5138_955)">
<mask id="mask1_5138_955" style="mask-type:alpha" maskUnits="userSpaceOnUse" x="-1" y="-119" width="485" height="486">
<rect x="141.212" y="-121.331" width="374.28" height="376.16" rx="10" transform="rotate(22.6474 141.212 -121.331)" fill="#D9D9D9"/>
</mask>
<g mask="url(#mask1_5138_955)">
<path d="M137.767 103.826L99.2276 87.7458C108.107 66.4633 132.565 56.4063 153.847 65.2861L137.767 103.826Z" fill="#099250"/>
<path d="M50.987 203.364L34.907 241.904C13.6245 233.024 3.56754 208.567 12.4473 187.284L50.987 203.364Z" fill="#099250"/>
<path d="M99.2275 87.7461L137.767 103.826C128.888 125.109 104.43 135.166 83.1475 126.286L99.2275 87.7461Z" fill="#099250"/>
<path d="M99.2272 87.7455L60.6875 71.6655C51.8078 92.948 61.8648 117.406 83.1472 126.285L99.2272 87.7455Z" fill="#099250"/>
<path d="M60.6866 71.6655L99.2263 87.7455C108.106 66.463 98.0491 42.0055 76.7666 33.1257L60.6866 71.6655Z" fill="#099250"/>
<path d="M214.831 135.979L176.291 119.899C185.171 98.6166 209.628 88.5597 230.911 97.4394L214.831 135.979Z" fill="#EA9E24"/>
<path d="M198.751 174.519L160.211 158.439C169.091 137.157 193.548 127.1 214.831 135.979L198.751 174.519Z" fill="#05CE92"/>
<path d="M176.305 119.905L137.766 103.825C146.645 82.5429 171.103 72.4859 192.385 81.3656L176.305 119.905Z" fill="#05CE92"/>
<path d="M160.226 158.445L121.687 142.365C130.566 121.083 155.024 111.026 176.306 119.906L160.226 158.445Z" fill="#8AC9AC"/>
<path d="M274.509 -9.81467C287.995 -28.5234 283.762 -54.6232 265.054 -68.1101C246.345 -81.5971 220.245 -77.364 206.758 -58.6552C193.271 -39.9465 197.504 -13.8467 216.213 -0.359754C234.922 13.1272 261.022 8.89408 274.509 -9.81467Z" fill="#05CE92"/>
<path fill-rule="evenodd" clip-rule="evenodd" d="M246.986 58.9149C238.106 80.1974 213.648 90.2543 192.366 81.3746C171.084 72.4949 161.027 48.0374 169.906 26.7549L246.986 58.9149Z" fill="#EA9E24"/>
<path fill-rule="evenodd" clip-rule="evenodd" d="M263.066 20.3753C254.186 41.6578 229.729 51.7148 208.446 42.8351C187.164 33.9554 177.107 9.4978 185.986 -11.7847L263.066 20.3753Z" fill="#05CE92"/>
<path fill-rule="evenodd" clip-rule="evenodd" d="M12.4464 187.285C21.3261 166.002 45.7836 155.945 67.0661 164.825C88.3486 173.705 98.4056 198.162 89.5258 219.445L12.4464 187.285Z" fill="#8AC9AC"/>
<path fill-rule="evenodd" clip-rule="evenodd" d="M121.686 142.365C112.806 163.647 88.3486 173.704 67.0662 164.825C45.7837 155.945 35.7267 131.487 44.6064 110.205L121.686 142.365Z" fill="#05CE92"/>
<path fill-rule="evenodd" clip-rule="evenodd" d="M153.847 65.2855L76.7671 33.1255L131.381 10.6808L153.847 65.2855Z" fill="#8AC9AC"/>
<path fill-rule="evenodd" clip-rule="evenodd" d="M169.92 26.761L92.8409 -5.39898L147.461 -27.8587L169.92 26.761Z" fill="#8AC9AC"/>
</g>
</g>
</svg>
